<svg height="1998" width="720" xmlns="http://www.w3.org/2000/svg">
<rect height="1998" fill="#555" width="720"></rect>
<text fill="#7f7" font-family="Courier New" font-size="12" xml:space="preserve">
<tspan x="10" y="26"></tspan>
<tspan x="10" y="42">&gt; npmdoc-sinopia@0.0.2 test /home/travis/build/npmdoc/node-npmdoc-sinopia</tspan>
<tspan x="10" y="58">&gt; (set -e; export PORT=$(utility2 shServerPortRandom); utility2 test test.js)</tspan>
<tspan x="10" y="74"></tspan>
<tspan x="10" y="90"></tspan>
<tspan x="10" y="106">[MODE_BUILD=npmTest] - 2017-03-25T14:22:14Z - npm-testing /home/travis/build/npmdoc/node-npmdoc-\</tspan>
<tspan x="10" y="122">sinopia</tspan>
<tspan x="10" y="138"></tspan>
<tspan x="10" y="154"></tspan>
<tspan x="10" y="170">covering $ /home/travis/.nvm/versions/node/v6.10.1/bin/node /home/travis/build/npmdoc/node-npmdo\</tspan>
<tspan x="10" y="186">c-sinopia/test.js</tspan>
<tspan x="10" y="202">merging file:///home/travis/build/npmdoc/node-npmdoc-sinopia/tmp/build/test-report.json to test-\</tspan>
<tspan x="10" y="218">report</tspan>
<tspan x="10" y="234">&gt; server listening on http-port 38740</tspan>
<tspan x="10" y="250"> warn  --- config file  - /home/travis/.config/sinopia/config.yaml</tspan>
<tspan x="10" y="266"> warn  --- http address - http://localhost:4873/</tspan>
<tspan x="10" y="282">created apidoc file:///home/travis/build/npmdoc/node-npmdoc-sinopia/tmp/build/apidoc.html</tspan>
<tspan x="10" y="298"></tspan>
<tspan x="10" y="314"></tspan>
<tspan x="10" y="330">browserTest - created electron entry-page /home/travis/build/npmdoc/node-npmdoc-sinopia/tmp/elec\</tspan>
<tspan x="10" y="346">tron.15b05d8a54d0.2b61c31ed4f3f.html</tspan>
<tspan x="10" y="362"></tspan>
<tspan x="10" y="378">Xlib:  extension "RANDR" missing on display ":99.0".</tspan>
<tspan x="10" y="394">[node test-case 1 of 6 passed] - testCase_buildLib_default</tspan>
<tspan x="10" y="410">[node test-case 2 of 6 passed] - testCase_buildReadme_default</tspan>
<tspan x="10" y="426">[node test-case 3 of 6 passed] - testCase_buildTest_default</tspan>
<tspan x="10" y="442"></tspan>
<tspan x="10" y="458">browserTest - created electron entry-page /home/travis/build/npmdoc/node-npmdoc-sinopia/tmp/elec\</tspan>
<tspan x="10" y="474">tron.15b05d8a6af0.5286f1d814dcc.html</tspan>
<tspan x="10" y="490"></tspan>
<tspan x="10" y="506">Xlib:  extension "RANDR" missing on display ":99.0".</tspan>
<tspan x="10" y="522">merging file:///home/travis/build/npmdoc/node-npmdoc-sinopia/tmp/build/test-report.json to test-\</tspan>
<tspan x="10" y="538">report</tspan>
<tspan x="10" y="554">&gt; server listening on http-port 63509</tspan>
<tspan x="10" y="570">Xlib:  extension "RANDR" missing on display ":99.0".</tspan>
<tspan x="10" y="586">[4774:0325/142217:WARNING:audio_manager.cc(314)] Multiple instances of AudioManager detected</tspan>
<tspan x="10" y="602">[4774:0325/142217:WARNING:audio_manager.cc(275)] Multiple instances of AudioManager detected</tspan>
<tspan x="10" y="618">[4818:0325/142217:ERROR:sandbox_linux.cc(343)] InitializeSandbox() called with multiple threads \</tspan>
<tspan x="10" y="634">in process gpu-process. </tspan>
<tspan x="10" y="650">[4774:0325/142217:ERROR:browser_gpu_channel_host_factory.cc(131)] Failed to create channel.</tspan>
<tspan x="10" y="666">merging file:///home/travis/build/npmdoc/node-npmdoc-sinopia/tmp/build/test-report.json to test-\</tspan>
<tspan x="10" y="682">report</tspan>
<tspan x="10" y="698">Xlib:  extension "RANDR" missing on display ":99.0".</tspan>
<tspan x="10" y="714">[4797:0325/142217:WARNING:audio_manager.cc(314)] Multiple instances of AudioManager detected</tspan>
<tspan x="10" y="730">[4797:0325/142217:WARNING:audio_manager.cc(275)] Multiple instances of AudioManager detected</tspan>
<tspan x="10" y="746">[4848:0325/142217:ERROR:sandbox_linux.cc(343)] InitializeSandbox() called with multiple threads \</tspan>
<tspan x="10" y="762">in process gpu-process. </tspan>
<tspan x="10" y="778">[4797:0325/142217:ERROR:browser_gpu_channel_host_factory.cc(131)] Failed to create channel.</tspan>
<tspan x="10" y="794"></tspan>
<tspan x="10" y="810">browserTest - opened url file:///home/travis/build/npmdoc/node-npmdoc-sinopia/tmp/build/apidoc.h\</tspan>
<tspan x="10" y="826">tml</tspan>
<tspan x="10" y="842"></tspan>
<tspan x="10" y="858"></tspan>
<tspan x="10" y="874">browserTest - opened url http://127.0.0.1:38740?modeTest=1</tspan>
<tspan x="10" y="890"></tspan>
<tspan x="10" y="906">[4797:0325/142219:INFO:CONSOLE(203)] "----------|-----------|-----------|-----------|-----------\</tspan>
<tspan x="10" y="922">|</tspan>
<tspan x="10" y="938">File      |   % Stmts |% Branches |   % Funcs |   % Lines |</tspan>
<tspan x="10" y="954">----------|-----------|-----------|-----------|-----------|</tspan>
<tspan x="10" y="970">----------|-----------|-----------|-----------|-----------|</tspan>
<tspan x="10" y="986">All files |       100 |       100 |       100 |       100 |</tspan>
<tspan x="10" y="1002">----------|-----------|-----------|-----------|-----------|</tspan>
<tspan x="10" y="1018">", source: file:///home/travis/build/npmdoc/node-npmdoc-sinopia/tmp/electron.15b05d8a6af0.5286f1\</tspan>
<tspan x="10" y="1034">d814dcc.html (203)</tspan>
<tspan x="10" y="1050">[4797:0325/142219:INFO:CONSOLE(203)] "created coverage file:///tmp/build/coverage.html/index.htm\</tspan>
<tspan x="10" y="1066">l", source: file:///home/travis/build/npmdoc/node-npmdoc-sinopia/tmp/electron.15b05d8a6af0.5286f\</tspan>
<tspan x="10" y="1082">1d814dcc.html (203)</tspan>
<tspan x="10" y="1098">[node test-case 4 of 6 passed] - testCase_buildApp_default</tspan>
<tspan x="10" y="1114"></tspan>
<tspan x="10" y="1130">browserTest - created screen-capture file:///home/travis/build/npmdoc/node-npmdoc-sinopia/tmp/bu\</tspan>
<tspan x="10" y="1146">ild/screen-capture.npmTest.browser._2Fhome_2Ftravis_2Fbuild_2Fnpmdoc_2Fnode-npmdoc-sinopia_2Ftmp\</tspan>
<tspan x="10" y="1162">_2Fbuild_2Fapidoc.html.png</tspan>
<tspan x="10" y="1178"></tspan>
<tspan x="10" y="1194"></tspan>
<tspan x="10" y="1210">browserTest - exit-code 0 - file:///home/travis/build/npmdoc/node-npmdoc-sinopia/tmp/build/apido\</tspan>
<tspan x="10" y="1226">c.html</tspan>
<tspan x="10" y="1242"></tspan>
<tspan x="10" y="1258">[node test-case 5 of 6 passed] - testCase_buildApidoc_default</tspan>
<tspan x="10" y="1274"></tspan>
<tspan x="10" y="1290">browserTest - created screen-capture file:///home/travis/build/npmdoc/node-npmdoc-sinopia/tmp/bu\</tspan>
<tspan x="10" y="1306">ild/screen-capture.npmTest.browser..png</tspan>
<tspan x="10" y="1322"></tspan>
<tspan x="10" y="1338"></tspan>
<tspan x="10" y="1354">browserTest - exit-code 0 - http://127.0.0.1:38740?modeTest=1</tspan>
<tspan x="10" y="1370"></tspan>
<tspan x="10" y="1386"></tspan>
<tspan x="10" y="1402">browserTest - merged coverage from /home/travis/build/npmdoc/node-npmdoc-sinopia/tmp/coverage.np\</tspan>
<tspan x="10" y="1418">mTest.browser.%2F.json</tspan>
<tspan x="10" y="1434"></tspan>
<tspan x="10" y="1450"></tspan>
<tspan x="10" y="1466">browserTest - merging test-report from /home/travis/build/npmdoc/node-npmdoc-sinopia/tmp/test-re\</tspan>
<tspan x="10" y="1482">port.npmTest.browser.%2F.json</tspan>
<tspan x="10" y="1498"></tspan>
<tspan x="10" y="1514">[node test-case 6 of 6 passed] - testCase_webpage_default</tspan>
<tspan x="10" y="1530">----------------------------|-----------|-----------|-----------|-----------|</tspan>
<tspan x="10" y="1546">File                        |   % Stmts |% Branches |   % Funcs |   % Lines |</tspan>
<tspan x="10" y="1562">----------------------------|-----------|-----------|-----------|-----------|</tspan>
<tspan x="10" y="1578">   node-npmdoc-sinopia/     |       100 |       100 |       100 |       100 |</tspan>
<tspan x="10" y="1594">      example.js            |       100 |       100 |       100 |       100 |</tspan>
<tspan x="10" y="1610">      lib.npmdoc_sinopia.js |       100 |       100 |       100 |       100 |</tspan>
<tspan x="10" y="1626">      test.js               |       100 |       100 |       100 |       100 |</tspan>
<tspan x="10" y="1642">----------------------------|-----------|-----------|-----------|-----------|</tspan>
<tspan x="10" y="1658">All files                   |       100 |       100 |       100 |       100 |</tspan>
<tspan x="10" y="1674">----------------------------|-----------|-----------|-----------|-----------|</tspan>
<tspan x="10" y="1690"></tspan>
<tspan x="10" y="1706">created coverage file:///home/travis/build/npmdoc/node-npmdoc-sinopia/tmp/build/coverage.html/in\</tspan>
<tspan x="10" y="1722">dex.html</tspan>
<tspan x="10" y="1738">merging file:///home/travis/build/npmdoc/node-npmdoc-sinopia/tmp/build/test-report.json to test-\</tspan>
<tspan x="10" y="1754">report</tspan>
<tspan x="10" y="1770"></tspan>
<tspan x="10" y="1786">-------------------------------------------------------</tspan>
<tspan x="10" y="1802">| test-report - buildNpmdoc - node - linux v6.10.1 - 2017-03-25T14:22:03.529Z</tspan>
<tspan x="10" y="1818">|   17940 ms            0 failed        6 passed      |</tspan>
<tspan x="10" y="1834">-------------------------------------------------------</tspan>
<tspan x="10" y="1850"></tspan>
<tspan x="10" y="1866">created test-report file:///home/travis/build/npmdoc/node-npmdoc-sinopia/tmp/build/test-report.h\</tspan>
<tspan x="10" y="1882">tml</tspan>
<tspan x="10" y="1898"></tspan>
<tspan x="10" y="1914"></tspan>
<tspan x="10" y="1930">npmTest - 0 failed tests</tspan>
<tspan x="10" y="1946"></tspan>
<tspan x="10" y="1962"></tspan>
<tspan x="10" y="1978">[MODE_BUILD=npmTest] - 2017-03-25T14:22:24Z - EXIT_CODE - 0</tspan>
</text>
</svg>
