<svg height="2014" width="720" xmlns="http://www.w3.org/2000/svg">
<rect height="2014" fill="#555" width="720"></rect>
<text fill="#7f7" font-family="Courier New" font-size="12" xml:space="preserve">
<tspan x="10" y="26"></tspan>
<tspan x="10" y="42">&gt; npmdoc-sinopia@0.0.1 test /home/travis/build/npmdoc/node-npmdoc-sinopia</tspan>
<tspan x="10" y="58">&gt; (set -e; export PORT=$(utility2 shServerPortRandom); utility2 test test.js)</tspan>
<tspan x="10" y="74"></tspan>
<tspan x="10" y="90"></tspan>
<tspan x="10" y="106">[MODE_BUILD=npmTest] - 2017-03-19T21:38:55Z - npm-testing /home/travis/build/npmdoc/node-npmdoc-\</tspan>
<tspan x="10" y="122">sinopia</tspan>
<tspan x="10" y="138"></tspan>
<tspan x="10" y="154"></tspan>
<tspan x="10" y="170">covering $ /home/travis/.nvm/versions/node/v7.7.3/bin/node /home/travis/build/npmdoc/node-npmdoc\</tspan>
<tspan x="10" y="186">-sinopia/test.js</tspan>
<tspan x="10" y="202">merging file:///home/travis/build/npmdoc/node-npmdoc-sinopia/tmp/build/test-report.json to test-\</tspan>
<tspan x="10" y="218">report</tspan>
<tspan x="10" y="234">&gt; server listening on http-port 37835</tspan>
<tspan x="10" y="250"> warn  --- config file  - /home/travis/.config/sinopia/config.yaml</tspan>
<tspan x="10" y="266"> warn  --- http address - http://localhost:4873/</tspan>
<tspan x="10" y="282">created apidoc file:///home/travis/build/npmdoc/node-npmdoc-sinopia/tmp/build/apidoc.html</tspan>
<tspan x="10" y="298"></tspan>
<tspan x="10" y="314"></tspan>
<tspan x="10" y="330">browserTest - created electron entry-page /home/travis/build/npmdoc/node-npmdoc-sinopia/tmp/elec\</tspan>
<tspan x="10" y="346">tron.15ae88249cf0.dc8024736e075.html</tspan>
<tspan x="10" y="362"></tspan>
<tspan x="10" y="378">Xlib:  extension "RANDR" missing on display ":99.0".</tspan>
<tspan x="10" y="394">[node test-case 1 of 6 passed] - testCase_buildLib_default</tspan>
<tspan x="10" y="410">[node test-case 2 of 6 passed] - testCase_buildReadme_default</tspan>
<tspan x="10" y="426">[node test-case 3 of 6 passed] - testCase_buildTest_default</tspan>
<tspan x="10" y="442"></tspan>
<tspan x="10" y="458">browserTest - created electron entry-page /home/travis/build/npmdoc/node-npmdoc-sinopia/tmp/elec\</tspan>
<tspan x="10" y="474">tron.15ae8824b3b0.dfbeb1e1330bd.html</tspan>
<tspan x="10" y="490"></tspan>
<tspan x="10" y="506">(node:4458) DeprecationWarning: node --debug is deprecated. Please use node --inspect instead.</tspan>
<tspan x="10" y="522">Xlib:  extension "RANDR" missing on display ":99.0".</tspan>
<tspan x="10" y="538">&gt; server listening on http-port 50791</tspan>
<tspan x="10" y="554">merging file:///home/travis/build/npmdoc/node-npmdoc-sinopia/tmp/build/test-report.json to test-\</tspan>
<tspan x="10" y="570">report</tspan>
<tspan x="10" y="586">Xlib:  extension "RANDR" missing on display ":99.0".</tspan>
<tspan x="10" y="602">[4476:0319/213858:WARNING:audio_manager.cc(314)] Multiple instances of AudioManager detected</tspan>
<tspan x="10" y="618">[4476:0319/213858:WARNING:audio_manager.cc(275)] Multiple instances of AudioManager detected</tspan>
<tspan x="10" y="634">[4523:0319/213858:ERROR:sandbox_linux.cc(343)] InitializeSandbox() called with multiple threads \</tspan>
<tspan x="10" y="650">in process gpu-process. </tspan>
<tspan x="10" y="666">[4476:0319/213858:ERROR:browser_gpu_channel_host_factory.cc(131)] Failed to create channel.</tspan>
<tspan x="10" y="682"></tspan>
<tspan x="10" y="698">browserTest - opened url file:///home/travis/build/npmdoc/node-npmdoc-sinopia/tmp/build/apidoc.h\</tspan>
<tspan x="10" y="714">tml</tspan>
<tspan x="10" y="730"></tspan>
<tspan x="10" y="746">merging file:///home/travis/build/npmdoc/node-npmdoc-sinopia/tmp/build/test-report.json to test-\</tspan>
<tspan x="10" y="762">report</tspan>
<tspan x="10" y="778">Xlib:  extension "RANDR" missing on display ":99.0".</tspan>
<tspan x="10" y="794">[4500:0319/213858:WARNING:audio_manager.cc(314)] Multiple instances of AudioManager detected</tspan>
<tspan x="10" y="810">[4500:0319/213858:WARNING:audio_manager.cc(275)] Multiple instances of AudioManager detected</tspan>
<tspan x="10" y="826">[4562:0319/213858:ERROR:sandbox_linux.cc(343)] InitializeSandbox() called with multiple threads \</tspan>
<tspan x="10" y="842">in process gpu-process. </tspan>
<tspan x="10" y="858">[4500:0319/213858:ERROR:browser_gpu_channel_host_factory.cc(131)] Failed to create channel.</tspan>
<tspan x="10" y="874"></tspan>
<tspan x="10" y="890">browserTest - opened url http://127.0.0.1:37835?modeTest=1</tspan>
<tspan x="10" y="906"></tspan>
<tspan x="10" y="922">[4500:0319/213900:INFO:CONSOLE(203)] "----------|-----------|-----------|-----------|-----------\</tspan>
<tspan x="10" y="938">|</tspan>
<tspan x="10" y="954">File      |   % Stmts |% Branches |   % Funcs |   % Lines |</tspan>
<tspan x="10" y="970">----------|-----------|-----------|-----------|-----------|</tspan>
<tspan x="10" y="986">----------|-----------|-----------|-----------|-----------|</tspan>
<tspan x="10" y="1002">All files |       100 |       100 |       100 |       100 |</tspan>
<tspan x="10" y="1018">----------|-----------|-----------|-----------|-----------|</tspan>
<tspan x="10" y="1034">", source: file:///home/travis/build/npmdoc/node-npmdoc-sinopia/tmp/electron.15ae8824b3b0.dfbeb1\</tspan>
<tspan x="10" y="1050">e1330bd.html (203)</tspan>
<tspan x="10" y="1066">[4500:0319/213900:INFO:CONSOLE(203)] "created coverage file:///tmp/build/coverage.html/index.htm\</tspan>
<tspan x="10" y="1082">l", source: file:///home/travis/build/npmdoc/node-npmdoc-sinopia/tmp/electron.15ae8824b3b0.dfbeb\</tspan>
<tspan x="10" y="1098">1e1330bd.html (203)</tspan>
<tspan x="10" y="1114">[node test-case 4 of 6 passed] - testCase_buildApp_default</tspan>
<tspan x="10" y="1130"></tspan>
<tspan x="10" y="1146">browserTest - created screen-capture file:///home/travis/build/npmdoc/node-npmdoc-sinopia/tmp/bu\</tspan>
<tspan x="10" y="1162">ild/screen-capture.npmTest.browser._2Fhome_2Ftravis_2Fbuild_2Fnpmdoc_2Fnode-npmdoc-sinopia_2Ftmp\</tspan>
<tspan x="10" y="1178">_2Fbuild_2Fapidoc.html.png</tspan>
<tspan x="10" y="1194"></tspan>
<tspan x="10" y="1210"></tspan>
<tspan x="10" y="1226">browserTest - exit-code 0 - file:///home/travis/build/npmdoc/node-npmdoc-sinopia/tmp/build/apido\</tspan>
<tspan x="10" y="1242">c.html</tspan>
<tspan x="10" y="1258"></tspan>
<tspan x="10" y="1274">[node test-case 5 of 6 passed] - testCase_buildApidoc_default</tspan>
<tspan x="10" y="1290"></tspan>
<tspan x="10" y="1306">browserTest - created screen-capture file:///home/travis/build/npmdoc/node-npmdoc-sinopia/tmp/bu\</tspan>
<tspan x="10" y="1322">ild/screen-capture.npmTest.browser..png</tspan>
<tspan x="10" y="1338"></tspan>
<tspan x="10" y="1354"></tspan>
<tspan x="10" y="1370">browserTest - exit-code 0 - http://127.0.0.1:37835?modeTest=1</tspan>
<tspan x="10" y="1386"></tspan>
<tspan x="10" y="1402"></tspan>
<tspan x="10" y="1418">browserTest - merged coverage from /home/travis/build/npmdoc/node-npmdoc-sinopia/tmp/coverage.np\</tspan>
<tspan x="10" y="1434">mTest.browser.%2F.json</tspan>
<tspan x="10" y="1450"></tspan>
<tspan x="10" y="1466"></tspan>
<tspan x="10" y="1482">browserTest - merging test-report from /home/travis/build/npmdoc/node-npmdoc-sinopia/tmp/test-re\</tspan>
<tspan x="10" y="1498">port.npmTest.browser.%2F.json</tspan>
<tspan x="10" y="1514"></tspan>
<tspan x="10" y="1530">[node test-case 6 of 6 passed] - testCase_webpage_default</tspan>
<tspan x="10" y="1546">----------------------------|-----------|-----------|-----------|-----------|</tspan>
<tspan x="10" y="1562">File                        |   % Stmts |% Branches |   % Funcs |   % Lines |</tspan>
<tspan x="10" y="1578">----------------------------|-----------|-----------|-----------|-----------|</tspan>
<tspan x="10" y="1594">   node-npmdoc-sinopia/     |       100 |       100 |       100 |       100 |</tspan>
<tspan x="10" y="1610">      example.js            |       100 |       100 |       100 |       100 |</tspan>
<tspan x="10" y="1626">      lib.npmdoc_sinopia.js |       100 |       100 |       100 |       100 |</tspan>
<tspan x="10" y="1642">      test.js               |       100 |       100 |       100 |       100 |</tspan>
<tspan x="10" y="1658">----------------------------|-----------|-----------|-----------|-----------|</tspan>
<tspan x="10" y="1674">All files                   |       100 |       100 |       100 |       100 |</tspan>
<tspan x="10" y="1690">----------------------------|-----------|-----------|-----------|-----------|</tspan>
<tspan x="10" y="1706"></tspan>
<tspan x="10" y="1722">created coverage file:///home/travis/build/npmdoc/node-npmdoc-sinopia/tmp/build/coverage.html/in\</tspan>
<tspan x="10" y="1738">dex.html</tspan>
<tspan x="10" y="1754">merging file:///home/travis/build/npmdoc/node-npmdoc-sinopia/tmp/build/test-report.json to test-\</tspan>
<tspan x="10" y="1770">report</tspan>
<tspan x="10" y="1786"></tspan>
<tspan x="10" y="1802">-------------------------------------------------------</tspan>
<tspan x="10" y="1818">| test-report - buildNpmdoc - node - linux v7.7.3 - 2017-03-19T21:38:45.749Z</tspan>
<tspan x="10" y="1834">|   17278 ms            0 failed        6 passed      |</tspan>
<tspan x="10" y="1850">-------------------------------------------------------</tspan>
<tspan x="10" y="1866"></tspan>
<tspan x="10" y="1882">created test-report file:///home/travis/build/npmdoc/node-npmdoc-sinopia/tmp/build/test-report.h\</tspan>
<tspan x="10" y="1898">tml</tspan>
<tspan x="10" y="1914"></tspan>
<tspan x="10" y="1930"></tspan>
<tspan x="10" y="1946">npmTest - 0 failed tests</tspan>
<tspan x="10" y="1962"></tspan>
<tspan x="10" y="1978"></tspan>
<tspan x="10" y="1994">[MODE_BUILD=npmTest] - 2017-03-19T21:39:05Z - EXIT_CODE - 0</tspan>
</text>
</svg>
